<?xml version="1.0" standalone="no"?><!DOCTYPE svg PUBLIC "-//W3C//DTD SVG 1.1//EN" "http://www.w3.org/Graphics/SVG/1.1/DTD/svg11.dtd"><svg t="1680642589350" class="icon" viewBox="0 0 1024 1024" version="1.1" xmlns="http://www.w3.org/2000/svg" p-id="1370" xmlns:xlink="http://www.w3.org/1999/xlink" width="200" height="200"><path d="M888 789H136c-39.76 0-72-32.24-72-72V307c0-39.76 32.24-72 72-72h752c39.76 0 72 32.24 72 72v410c0 39.76-32.24 72-72 72z" fill="#F7F9FB" p-id="1371"></path><path d="M440 366v219c0 44-3.5 73-73 73h-48.67V554.54c21.9 6.12 49.64 6.12 49.64 6.12 46.36 0 59.86-17.99 59.86-40.23v-57.1h-41.62v57.1c0 13.9-9.31 24.29-26.09 24.29-14.24 0-28.29-4.26-41.79-10.94V439c0-61 23.17-73 73-73H440z" fill="#086CB4" p-id="1372"></path><path d="M573.83 366v219c0 54-13.33 73-73 73h-48.67l-0.02-115.24c11.92 11.74 33.87 19.34 71.18 17.68 0 0 18.62-0.73 38.34-5.6v-20.45c-9.58 4.88-21.75 9.58-36.87 10.66-26.54 1.99-42.4-10.66-42.4-33.07 0-22.4 15.86-35.06 42.4-33.07 15.11 1.09 27.1 5.6 36.87 10.48v-20.24c-19.73-4.88-38.34-5.6-38.34-5.6-37.31-1.66-59.26 5.94-71.18 17.68l0.02-42.24c0-61 20.33-73 73-73h48.67z" fill="#E90037" p-id="1373"></path><path d="M641.93 502.85c5.72-0.87 9.92-6.03 9.77-12.02 0.15-6.03-4.02-11.24-9.77-12.21-0.55 0-1.84-0.2-2.76-0.2h-25.63v24.62h26.37l0.78-0.02c0.5-0.03 0.96-0.08 1.24-0.17zM613.52 544.83h28.21l1.67-0.11 1.65-0.27c5.11-1.05 9.27-5.36 9.88-11.42l0.08-1.55-0.08-1.52c-0.61-5.95-4.77-10.42-9.88-11.48-1.09-0.23-2.2-0.35-3.32-0.38h-28.21v26.73z" fill="#69A547" p-id="1374"></path><path d="M660 366c-67.5 0-73 26-73 73v24.33h71.72l1.29 0.03c1.32 0.06 2.67 0.17 3.5 0.17 15.67 0.76 27.28 9.15 27.28 23.66 0 10.64-7.07 19.91-19.98 22.68l-2.34 0.42v0.57l2.24 0.22c14.04 1.73 24.72 9.93 25.71 22.31l0.07 1.89-0.07 1.9c-0.98 13.74-12.83 22.68-28.86 23.43l-2.21 0.05H587V658h48.67c64.83 0 73-27 73-73V366H660z" fill="#69A547" p-id="1375"></path></svg>