<?xml version="1.0" encoding="utf-8"?>
<!-- Generator: Adobe Illustrator 22.1.0, SVG Export Plug-In . SVG Version: 6.00 Build 0)  -->
<svg version="1.1" id="Layer_1" xmlns="http://www.w3.org/2000/svg" xmlns:xlink="http://www.w3.org/1999/xlink" x="0px" y="0px"
	 viewBox="0 0 539 174" style="enable-background:new 0 0 539 174;" xml:space="preserve">
<style type="text/css">
	.st0{fill:url(#Fill-1-Copy-15_1_);}
	.st1{fill:url(#Fill-1-Copy-4_1_);}
	.st2{fill:url(#Fill-1-Copy-12_1_);}
	.st3{fill:url(#Fill-1-Copy-26_1_);}
	.st4{fill:url(#Fill-1-Copy-27_1_);}
	.st5{fill:url(#Fill-1-Copy-25_1_);}
</style>
<title>Group 7</title>
<desc>Created with Sketch.</desc>
<g id="Estore_Component_Page-Copy-2" transform="translate(0.000000, -3092.000000)">
	<g id="Group-7" transform="translate(-126.000000, 3092.000000)">
		
			<linearGradient id="Fill-1-Copy-15_1_" gradientUnits="userSpaceOnUse" x1="-101.9825" y1="572.7857" x2="-100.9825" y2="572.7857" gradientTransform="matrix(114 0 0 -28 12084 16061)">
			<stop  offset="0" style="stop-color:#F0F0F1"/>
			<stop  offset="1" style="stop-color:#D7D8DA"/>
		</linearGradient>
		<path id="Fill-1-Copy-15" class="st0" d="M504,9c-13.4,0.1-19.2,2.7-25.3,8L458,37h67.5c1.7,0,3.2,0,4.7-0.1
			c11.7-0.7,16.9-3.8,23-9.5C554.5,26.2,572,9,572,9S542.6,9,504,9z"/>
		
			<linearGradient id="Fill-1-Copy-4_1_" gradientUnits="userSpaceOnUse" x1="-102.4721" y1="574.625" x2="-102.0129" y2="574.625" gradientTransform="matrix(233 0 0 -32 24002 18413)">
			<stop  offset="0" style="stop-color:#F0F0F1"/>
			<stop  offset="1" style="stop-color:#D7D8DA"/>
		</linearGradient>
		<path id="Fill-1-Copy-4" class="st1" d="M179.7,9c-15.7,0.1-22.4,3.1-29.5,9.1l0,0L126,41h52.7c1.9,0,3.7,0,5.4-0.1l0,0
			c13.7-0.8,19.7-4.4,26.9-10.8l0,0c1.5-1.3,22-21,22-21l0,0C233,9,224.8,9,179.7,9"/>
		
			<linearGradient id="Fill-1-Copy-12_1_" gradientUnits="userSpaceOnUse" x1="-102.2031" y1="571.6539" x2="-101.2031" y2="571.6539" gradientTransform="matrix(128 0 0 -26 13619 14998)">
			<stop  offset="0" style="stop-color:#ED2130"/>
			<stop  offset="1" style="stop-color:#A82037"/>
		</linearGradient>
		<path id="Fill-1-Copy-12" class="st2" d="M578.3,122c-12,0.1-17.3,2.5-22.7,7.4l0,0L537,148h86.2c1.5,0,2.9,0,4.2-0.1l0,0
			c10.5-0.6,15.2-3.6,20.7-8.8l0,0C649.2,138,665,122,665,122l0,0C665,122,613,122,578.3,122"/>
		
			<linearGradient id="Fill-1-Copy-26_1_" gradientUnits="userSpaceOnUse" x1="-101.7885" y1="571.6539" x2="-100.7885" y2="571.6539" gradientTransform="matrix(104 0 0 -26 10891 15024)">
			<stop  offset="0" style="stop-color:#007FC4"/>
			<stop  offset="1" style="stop-color:#282561"/>
		</linearGradient>
		<path id="Fill-1-Copy-26" class="st3" d="M346.9,148c-12.2,0.1-17.5,2.5-23.1,7.4l0,0L305,174h61.6c1.5,0,2.9,0,4.2-0.1l0,0
			c10.7-0.6,15.4-3.6,21-8.8l0,0C393,164,409,148,409,148l0,0C409,148,382.2,148,346.9,148"/>
		
			<linearGradient id="Fill-1-Copy-27_1_" gradientUnits="userSpaceOnUse" x1="-100.8056" y1="564.6111" x2="-99.8056" y2="564.6111" gradientTransform="matrix(72 0 0 -18 7687 10172)">
			<stop  offset="0" style="stop-color:#007FC4"/>
			<stop  offset="1" style="stop-color:#282561"/>
		</linearGradient>
		<path id="Fill-1-Copy-27" class="st4" d="M442.1,5.1L429,18h42.6c1.1,0,2,0,2.9-0.1c7.4-0.4,10.7-2.5,14.5-6.1
			C489.9,11.1,501,0,501,0s-18.6,0-43,0C449.6,0.1,445.9,1.8,442.1,5.1z"/>
		
			<linearGradient id="Fill-1-Copy-25_1_" gradientUnits="userSpaceOnUse" x1="-102.5256" y1="576.9359" x2="-101.5256" y2="576.9359" gradientTransform="matrix(156 0 0 -39 16227 22576)">
			<stop  offset="0" style="stop-color:#ED2130"/>
			<stop  offset="1" style="stop-color:#A82037"/>
		</linearGradient>
		<path id="Fill-1-Copy-25" class="st5" d="M261.3,67.1L233,95h92.4c2.3,0,4.4-0.1,6.4-0.2c16-0.9,23.1-5.3,31.5-13.2
			C365,80,389,56,389,56s-40.2,0-93.1,0C277.5,56.1,269.6,59.8,261.3,67.1z"/>
	</g>
</g>
</svg>
