<svg width="20" height="20" viewBox="0 0 20 20" fill="none" xmlns="http://www.w3.org/2000/svg">
<path fill-rule="evenodd" clip-rule="evenodd" d="M10 19C14.9706 19 19 14.9706 19 10C19 5.02944 14.9706 1 10 1C5.02944 1 1 5.02944 1 10C1 14.9706 5.02944 19 10 19ZM10 20C15.5228 20 20 15.5228 20 10C20 4.47715 15.5228 0 10 0C4.47715 0 0 4.47715 0 10C0 15.5228 4.47715 20 10 20Z" fill="white"/>
<path fill-rule="evenodd" clip-rule="evenodd" d="M10.0819 6.39342C10.6704 6.39342 11.1475 5.91634 11.1475 5.32784C11.1475 4.73934 10.6704 4.26227 10.0819 4.26227C9.49343 4.26227 9.01636 4.73934 9.01636 5.32784C9.01636 5.91634 9.49343 6.39342 10.0819 6.39342ZM5.09181 6.89773C5.16538 6.63157 5.44079 6.47544 5.70695 6.54901C6.29204 6.71074 7.21163 6.95345 8.06611 7.15529C8.49364 7.25628 8.90076 7.34607 9.23963 7.41031C9.59176 7.47706 9.83187 7.50848 9.94602 7.50848C10.0616 7.50848 10.3105 7.47663 10.6767 7.4097C11.0294 7.34526 11.4552 7.25527 11.9031 7.15417C12.7984 6.9521 13.7668 6.70918 14.3844 6.54728C14.6515 6.47726 14.9248 6.63704 14.9949 6.90416C15.0649 7.17128 14.9051 7.44458 14.638 7.5146C14.0125 7.67855 13.0326 7.92439 12.1233 8.12963C11.7861 8.20573 11.4565 8.27673 11.157 8.33605C11.125 8.69205 11.0885 9.33743 11.0772 9.9726C11.0711 10.3176 11.0726 10.6524 11.0854 10.9311C11.0991 11.2271 11.1241 11.4087 11.1459 11.4795C11.2174 11.7115 11.4955 12.2974 11.851 13.0429C12.1923 13.7584 12.5848 14.5818 12.8414 15.2244C12.9438 15.4809 12.8189 15.7718 12.5624 15.8742C12.3059 15.9766 12.015 15.8517 11.9127 15.5952C11.6708 14.9894 11.2943 14.1987 10.9484 13.4734L10.9117 13.3965C10.6401 12.8271 10.377 12.2756 10.2459 11.9325V11.9358L10.2433 11.9258C10.2298 11.8903 10.2178 11.8571 10.2073 11.8264C10.1762 11.7655 10.1285 11.7213 10.0492 11.7213C9.95562 11.7213 9.91724 11.7556 9.89137 11.8053C9.88217 11.8276 9.87244 11.8508 9.86219 11.8749C9.85459 11.8946 9.8464 11.9148 9.83606 11.9354C9.67448 12.306 9.40928 12.8453 9.13766 13.397L9.08343 13.5072C8.72133 14.2426 8.33469 15.0278 8.08134 15.6095C7.97107 15.8626 7.67645 15.9785 7.42328 15.8682C7.17011 15.7579 7.05426 15.4633 7.16453 15.2102C7.42764 14.6061 7.82378 13.8016 8.18137 13.0754L8.24048 12.9554C8.62603 12.1722 8.9338 11.54 9.01325 11.3035C9.03602 11.2358 9.06271 11.0668 9.07749 10.7893C9.0914 10.5281 9.09302 10.2156 9.08636 9.89204C9.0746 9.32074 9.03761 8.73866 9.00378 8.38332C8.65531 8.31612 8.25099 8.22649 7.83622 8.12851C6.96643 7.92305 6.03424 7.67698 5.44052 7.51287C5.17436 7.4393 5.01824 7.16389 5.09181 6.89773Z" fill="white"/>
</svg>
